<svg width="204" height="57" viewBox="0 0 204 57" fill="none" xmlns="http://www.w3.org/2000/svg">
<path d="M14.125 13.0378C14.1669 13.2677 14.125 13.5185 14.125 13.7066L14.125 13.0378ZM1.8973 40.6286C-0.56915 37.556 0.580468 33.48 2.79609 30.4492C0.852195 33.2292 0.0579139 38.2875 1.8973 40.6286ZM28.3803 2.25226C27.7114 1.6879 26.9172 1.31166 26.0602 0.977222C23.9281 0.0784306 21.9006 -0.2978 19.6223 0.266557C17.4485 0.830915 15.3583 1.98052 13.707 3.48548C12.5783 4.53058 10.5717 6.28637 10.3418 7.93764L10.6762 7.45688C10.1954 8.35567 9.86101 9.25447 9.67289 10.1115C9.63109 10.1115 9.77741 9.35898 9.81921 9.35898C9.06673 9.35898 9.29666 12.2435 9.33846 12.6824C9.44297 14.6263 9.94462 16.612 10.718 18.4096C11.7631 20.8761 12.8918 23.2798 13.8533 25.7462L14.7103 27.8783C14.8148 28.2127 14.9402 28.5889 15.0865 28.9234C15.1284 28.9234 15.3165 29.2996 15.3165 29.2578C15.3583 29.6341 15.4628 29.9267 15.5464 30.2611C15.4419 30.0312 15.2538 29.6967 15.2538 29.5086C15.1493 29.8431 15.4419 30.2611 15.5464 30.5119C15.6509 30.9927 15.6927 31.4107 15.6927 31.8915C15.5882 33.1247 15.1702 34.3161 14.564 35.3403C13.3308 37.3678 11.3033 39.04 9.02493 39.7507C7.37366 40.2314 5.32525 40.2314 4.57277 38.4338C3.90391 36.9707 4.19654 35.1731 4.53097 33.6473C4.71909 32.7903 4.94901 31.9333 5.34615 31.139C5.63878 30.3865 7.14374 28.3381 6.72569 27.5856C5.68059 25.7463 2.16903 30.3865 1.70918 31.139C-0.276519 34.3579 -1.23802 39.6253 2.8379 41.6946C5.68059 43.1159 9.42207 42.886 12.2648 41.7364C13.2681 41.3601 17.5739 39.5626 17.5321 38.1412L16.5915 38.8101C19.8522 35.9674 21.19 32.5185 19.9149 28.2545C19.3088 26.2688 18.1592 24.6593 17.0722 22.9036C16.2571 21.4822 16.0271 20.1027 15.3583 18.6395C16.2571 20.4371 17.344 22.1929 18.3055 23.9905C16.3616 19.5383 12.6201 14.2292 15.1283 9.25447C16.2571 7.01794 18.3055 5.17856 20.5211 4.09164C21.7961 3.48548 23.322 2.96293 24.7851 3.00473C26.5409 3.15105 26.1647 4.27976 26.1647 5.47118C26.2692 4.76051 26.6872 4.00804 25.9766 3.29737C25.3077 2.73301 24.2208 2.92112 23.4265 3.06744C21.5871 3.40187 19.8731 4.15435 18.41 5.24126C19.4551 4.42608 20.6465 3.77812 21.8588 3.33917C22.9457 2.96293 24.5552 2.48218 25.6421 2.96292C28.3385 4.19615 24.8896 9.35898 23.6146 11.1148C23.8445 10.6967 24.2208 9.88153 24.3253 9.79792C23.6564 9.75612 22.3396 13.0587 22.0051 13.2468C20.8764 14.4382 22.2351 14.5636 23.1966 13.9993C24.2417 13.3931 25.0987 12.3898 25.8929 11.5746C26.9799 10.4459 27.9832 9.25447 28.8401 7.97944C29.4045 7.12245 30.4496 5.74291 29.8853 4.71871C29.4254 3.75721 29.1955 2.90023 28.3803 2.25226Z" fill="#5E17EB"/>
<path d="M28.5266 31.139C28.5266 31.1808 28.4848 31.1808 28.4848 31.1808L28.5266 31.139ZM20.751 45.7914C20.751 45.7496 20.751 45.7496 20.7928 45.6869C20.8137 45.7287 20.8137 45.7287 20.751 45.7914ZM30.8049 24.9311C30.8049 25.0356 30.7631 25.0774 30.7004 25.1192L30.8049 24.9311ZM33.2714 26.1225L33.2714 26.0807C33.3132 26.0389 33.3132 26.0389 33.3132 25.9762C33.355 25.9344 33.3132 26.018 33.2714 26.1225ZM30.8049 24.9311L30.993 24.513L30.8049 24.9311ZM31.1393 24.1368C31.0975 24.1786 31.0348 24.3249 30.993 24.513L31.1393 24.1368ZM42.4474 29.6758C42.4892 29.5295 42.74 29.4877 42.8654 29.3832L42.4474 29.6758ZM34.7345 23.9487L33.8357 25.2655C34.1074 24.8474 34.4001 24.3667 34.7345 23.9487ZM28.2339 31.7033C28.0876 32.2677 27.9413 32.7902 27.7532 33.271C27.9204 32.8111 28.0458 32.2259 28.2339 31.7033ZM26.1646 30.282L26.1646 30.3238C26.1228 30.93 25.6839 31.6406 25.454 32.2259C25.1195 33.1247 24.8478 34.0235 24.5552 34.9223C23.949 36.8244 23.2383 38.7056 22.465 40.5031C21.8588 42.029 21.2735 43.6803 20.8555 45.3315C21.378 43.0114 22.235 40.7331 22.883 38.5592C23.4892 36.5735 24.4507 34.6296 25.2031 32.6857C25.3076 32.4558 26.2064 30.5537 26.1019 30.1775C26.1646 30.2402 26.1646 30.282 26.1646 30.282ZM50.4111 25.4536C50.1185 25.4954 47.6729 26.2688 47.7983 26.645C47.7983 26.6868 47.9028 26.7495 47.9447 26.7495C47.1295 27.084 46.1053 27.1258 45.2901 27.6483C44.3913 28.2545 43.5343 28.8815 42.5937 29.4041C43.4507 27.941 44.245 26.3733 44.7675 24.8056C44.9556 24.2413 46.0426 20.7297 45.3319 20.3535C45.2274 20.3117 45.1856 20.7297 45.1438 20.9596C45.1856 19.0576 44.5794 16.1731 42.0084 15.9849C40.4408 15.8804 38.9776 17.8243 38.1207 18.8694C36.1768 21.3359 34.4628 23.9905 32.7697 26.5405C32.289 27.2512 27.5651 34.9223 27.5651 34.9223C27.5651 34.9223 27.8995 34.4415 28.3176 33.8354C27.8995 34.546 27.4606 35.2985 27.0843 36.0719C27.2724 35.3612 29.07 29.7176 30.2197 26.4151C30.3242 26.2688 30.366 26.0807 30.4078 25.9344L30.7004 25.1192L30.7004 25.161C31.1184 23.8859 31.5574 22.6109 31.9336 21.2732C31.9336 21.4195 31.7455 22.1302 31.7873 22.1302C32.0799 22.172 32.4562 20.1863 32.2681 20.1863L32.1217 20.4162C32.2681 19.7055 32.498 19.3711 32.0799 18.5768C31.7455 17.8661 31.1811 17.1973 30.366 17.0091C28.7983 16.5911 28.0458 17.8661 28.1294 19.0994C28.1294 19.2875 28.3594 19.392 28.3594 19.5801C28.3594 19.81 28.1294 20.249 28.0667 20.4371C27.7323 21.4404 27.5024 22.381 27.1261 23.3216C26.938 23.8441 25.1822 28.777 25.1822 28.777C25.2867 28.7352 25.3285 28.6307 25.3704 28.5471C25.224 28.9652 25.0777 29.4041 24.8896 29.8221C24.8478 29.7803 25.0359 29.4459 24.9314 29.4459C24.4507 29.3414 23.2801 33.3337 23.1756 33.7099C22.9875 34.6087 22.7576 35.4657 22.4232 36.3645C22.2768 36.8453 22.0887 37.3051 21.9424 37.8277C21.9424 37.8695 21.7125 39.0191 21.9424 38.5801C21.9006 38.7265 21.8379 38.8101 21.8379 38.9146C21.8379 38.8728 21.7961 38.8101 21.7961 38.7683C21.6498 38.8101 21.5662 39.8134 21.5662 39.8552C21.378 40.3777 21.1481 40.754 20.8973 41.2347C20.2911 42.7606 19.9567 44.4118 19.7059 46.0213C19.3296 48.4877 18.18 52.1874 19.4132 54.4449C19.8313 55.26 21.169 56.9113 22.2141 55.908C22.6949 55.4273 22.6949 54.3404 22.7367 53.776C23.0293 52.2083 23.2592 50.5989 23.5937 49.0312L24.0117 46.8574C24.0535 46.7529 24.4298 45.018 24.3043 45.0598C24.1998 45.1643 24.1162 45.2897 24.0744 45.436C24.3043 44.6836 24.6388 43.9729 24.9314 43.1577C25.3076 42.029 25.6003 40.9212 26.1646 39.897C26.8335 38.8519 27.3979 37.7232 28.004 36.6781C28.4848 35.8211 28.9028 34.7342 29.4254 34.0235C29.5717 33.8354 29.8434 33.7309 30.0942 33.5427C30.575 33.0202 30.9094 32.3095 31.2857 31.7451C31.9963 30.6164 32.6025 29.4668 33.3759 28.4217C33.7103 27.941 37.4936 22.6318 37.8698 22.3183C37.7653 22.3601 37.6817 22.4228 37.5772 22.5064C37.9534 22.0257 38.3924 21.6076 38.7686 21.2314C38.8104 21.2732 38.476 21.5658 38.5387 21.6076C38.6432 21.6494 40.817 19.9563 41.1933 19.8936C42.2384 19.7055 41.8621 21.6912 41.7158 22.2138C41.4859 23.3007 40.8588 24.3458 40.3363 25.2864C40.0436 25.8089 39.7719 26.2897 39.5211 26.8122C39.4793 26.854 39.103 27.7528 39.2285 27.6692L38.9358 28.0873C39.0403 27.941 39.0822 27.7528 39.0822 27.7528C38.894 27.7528 38.6641 28.568 38.6014 28.6934C38.3088 29.1742 37.9325 29.5504 37.5563 29.9267C36.553 31.0554 35.6542 32.2468 34.6718 33.3337C33.9193 34.1489 32.916 35.5702 31.7873 35.842C30.9721 36.0301 30.366 35.612 30.784 36.8871C31.0766 37.7859 32.1008 39.8761 33.2505 39.8761C34.2956 39.8761 35.5706 38.3084 36.1977 37.6395C36.9083 36.8244 37.7235 36.0719 38.476 35.2149C38.6641 34.9223 40.8379 32.3304 41.1724 32.1841L41.1306 32.1841C41.6113 31.9542 42.0712 32.1423 42.74 31.6615C43.1163 31.3689 43.3044 31.0972 43.7433 30.8045C44.0778 30.6164 44.2241 30.3865 44.3495 30.2402C44.3495 30.2402 44.3495 30.282 44.3913 30.282C44.872 29.8012 45.52 29.9476 46.1471 29.5295C46.8995 29.007 47.861 28.3381 48.509 27.7319C49.366 26.9795 50.5365 26.5405 50.9337 25.2655C50.7873 25.37 50.5574 25.37 50.4111 25.4536Z" fill="#5E17EB"/>
<path d="M58.9392 18.7858L58.981 18.744C58.981 18.7858 58.9392 18.7858 58.9392 18.7858ZM62.1999 21.8584C61.8655 23.1753 61.5938 24.9311 60.8831 26.1225C60.6532 26.6032 60.7786 26.4569 60.3188 26.5405C60.0261 26.645 59.42 26.5405 59.1273 26.4987C58.6048 26.4569 57.9986 26.3524 57.6015 26.018C56.9326 25.4536 57.0371 24.5548 57.1207 23.7396C57.2252 22.9244 57.4552 22.172 57.7269 21.4195C57.8732 21.1269 58.772 19.6219 58.6257 19.3293C58.5839 19.183 58.0613 20.04 58.0195 20.0818C58.3122 19.5592 58.5839 19.2666 58.8347 18.953C58.7929 18.953 58.8347 18.9112 58.8765 18.8067L58.8765 18.8485L58.9183 18.744C58.9183 18.744 58.9183 18.7022 58.9601 18.7022C59.6708 17.7616 61.4266 15.6296 62.3672 17.0928C63.0987 18.3469 62.4508 20.667 62.1999 21.8584ZM52.8776 34.985L52.8358 34.985C48.9062 35.5493 53.4419 27.2094 53.5465 26.7495L53.2538 27.1676C53.9645 25.7462 54.6334 24.6175 54.9678 24.2204C55.4904 26.5823 58.0404 27.4811 60.1306 27.7737C58.7511 30.5328 56.201 34.3579 52.8776 34.985ZM69.2649 25.4118C69.2649 25.4118 69.3067 25.4536 69.2649 25.37C69.0349 25.0356 68.7005 25.2655 68.3661 25.37C66.9865 25.6626 65.5652 25.9762 64.1438 26.227C64.6664 24.513 65.1889 22.7154 65.3771 20.9597C65.4816 20.2908 65.5234 19.5801 65.3771 18.9321C65.2726 18.5141 65.1471 18.0751 64.8963 17.6989C64.8963 17.6989 64.332 16.9882 64.4783 17.3645L64.4365 17.3227L64.2484 16.9464L64.4365 17.1346C64.4783 16.8419 63.684 16.3194 63.684 16.3194C62.4926 15.128 60.8831 14.2292 59.2736 15.128C58.2703 15.6923 57.4761 16.6538 56.8072 17.5944C56.5773 17.9288 56.3264 18.3051 56.1383 18.6813C55.9502 19.0576 55.6576 20.2908 55.3859 20.4789C55.1559 20.667 54.4453 20.7088 54.1108 20.8969C53.6301 21.0851 53.212 21.315 52.8358 21.6076C51.937 22.172 51.2263 22.9872 50.5575 23.7814C49.4287 25.3073 48.8435 27.0004 48.0492 28.5262C46.5233 31.4107 48.1955 35.2149 50.9964 36.5735C51.8952 36.9916 52.9403 37.1797 53.8809 37.0961C54.8842 36.9498 55.8248 36.4272 56.5773 35.8629C57.2879 35.3403 58.8556 34.3997 59.1273 33.5845C59.1273 33.5427 59.0228 33.5845 58.8974 33.7308L60.2769 32.1214C60.3188 32.1632 59.9425 32.6439 59.9425 32.6439C60.2769 32.7902 61.97 30.282 62.179 30.0939C62.5135 29.5295 62.8479 28.9025 63.2241 28.3381C63.5586 27.9201 63.4541 27.9619 63.9348 27.7737C63.893 27.8155 64.4992 27.6274 64.6037 27.6274C65.1053 27.5438 70.6444 27.1676 69.2649 25.4118Z" fill="#5E17EB"/>
<path d="M71.3132 24.3667C71.2714 24.3667 71.2714 24.4085 71.2714 24.4085L71.3132 24.3667ZM69.8292 40.0433C69.8292 40.0433 69.871 40.0851 69.871 40.1478C69.8919 40.106 69.8292 40.106 69.8292 40.0433ZM69.6411 35.6957C69.6411 35.6539 69.6829 35.5912 69.6829 35.5076C69.6829 35.5912 69.6411 35.6539 69.6411 35.6957ZM76.4761 28.4008L76.4761 28.4426L76.4343 28.4426L76.4761 28.4008ZM76.4761 28.4008L76.4761 28.4426L76.4343 28.4426L76.4761 28.4008ZM69.5993 36.3018C69.5993 36.3436 69.5575 36.4063 69.5575 36.4481L69.5575 36.4063C69.5575 36.3645 69.5993 36.3645 69.5993 36.3018ZM76.4134 28.5471L75.4101 30.6374L76.4134 28.5053L76.4134 28.5471ZM71.4387 24.8475C71.6686 25.0356 72.1075 25.0774 72.5256 25.1401C72.1493 25.0983 71.8149 24.9938 71.585 24.8057C71.585 24.8057 71.2923 24.5757 71.2505 24.4712C71.2505 24.5548 71.3551 24.8057 71.4387 24.8475ZM70.1218 40.4823C70.4145 40.8585 70.7907 41.2347 71.3132 41.4229C70.8952 41.2765 70.4981 41.0466 70.2263 40.754C70.2681 40.754 70.2681 40.7958 70.2681 40.8585C69.9755 40.4823 69.5993 39.6671 69.5575 39.5417C69.4112 38.9773 69.3694 38.3084 69.4112 37.7441C69.4112 37.2633 69.453 36.8871 69.5575 36.4691L69.5575 36.5109C69.453 37.117 69.4112 37.7441 69.453 38.413L69.453 38.6429C69.4112 38.6011 69.4112 38.5384 69.4112 38.5384C69.4112 38.5384 69.4112 38.5802 69.453 38.6847L69.453 38.7265L69.6411 39.7298L69.4948 39.1236C69.5993 39.4162 69.8292 39.9388 70.0591 40.4405L70.0173 40.3987C70.0173 40.4405 70.0591 40.5032 70.1218 40.545L70.1218 40.4823ZM71.2505 31.3898C71.585 30.5328 71.9612 29.7386 72.3793 28.9234C72.4838 28.7771 73.1317 27.084 73.4662 26.9795C73.2362 27.1258 72.2329 29.4459 72.003 29.864L71.1042 31.9542C70.6235 33.0829 70.1009 34.2743 69.7874 35.5076C70.1218 34.0862 70.6862 32.7067 71.2505 31.3898ZM85.4222 25.7045C85.1296 24.4712 84.0008 26.1225 83.7709 26.4151L81.1582 29.9058L78.6081 33.271L77.2286 35.0268C77.0822 35.2149 76.0371 36.5527 76.1416 36.5527C76.2462 36.4481 76.3716 36.4482 76.5179 36.3227C75.8072 37.0752 73.1944 39.4581 72.7346 38.8728C72.3584 38.3921 73.4035 36.4063 73.5498 35.9256C74.0723 34.5461 74.5531 33.1247 75.1174 31.8079C75.7236 30.4283 76.4343 29.0697 77.0195 27.6902C77.5839 26.227 76.7269 25.7045 75.3683 25.37C74.7621 25.2237 73.9887 25.2237 73.2781 25.1401C73.2781 25.1819 73.3199 25.1819 73.3199 25.1819C73.926 25.2864 74.8457 25.3282 75.5982 25.5581C74.4695 25.2237 73.0481 25.37 72.1493 25.1401C71.5432 24.9938 71.146 24.9938 71.2505 24.2831C71.3551 23.3425 72.3375 22.3392 72.6719 21.4404C72.6719 21.4822 72.3375 22.3392 72.3793 22.3392C72.6092 22.4437 72.9854 21.106 72.9854 20.9179C72.9436 20.6879 72.3793 19.9773 72.3166 20.249L72.4211 20.3953C70.1427 18.8277 67.4464 22.0466 67.9271 24.3667C68.0316 24.7012 68.2197 24.8893 68.3451 25.2655C68.4497 25.5581 68.3451 25.8717 68.6378 26.2688C69.6411 27.502 71.4387 27.5438 72.86 27.2721C72.6301 27.6066 70.1218 32.9157 70.2472 32.9575L69.9128 34.1489C69.871 34.1071 70.0591 33.7309 69.9546 33.7309C69.6202 33.6891 68.9513 36.4273 68.9095 36.6781C68.7214 37.8068 68.7632 38.8101 69.2439 39.8552C69.5366 40.5241 69.8501 41.0884 70.4772 41.4647C71.0415 41.8409 71.7522 42.029 72.4211 41.8827C72.651 41.7782 73.5498 41.172 73.3199 41.2138L73.6543 41.0675C73.6125 41.1093 73.5498 41.172 73.5498 41.2138C73.6961 41.2556 75.8699 39.4999 76.1625 39.3117C77.6884 38.0367 78.9007 36.4691 80.0503 34.9014C81.1791 33.2919 82.3705 31.6825 83.4574 30.073C83.9799 29.3205 84.4607 28.5471 84.8369 27.7529C85.0878 27.1676 85.5685 26.3524 85.4222 25.7045Z" fill="#5E17EB"/>
<path d="M84.3772 41.8409C84.3354 41.8409 84.2727 41.7991 84.2309 41.7364L84.3772 41.8409ZM94.7028 12.0136L95.1836 10.9685C95.0373 11.3447 94.8492 11.721 94.7028 12.0136ZM90.4388 20.9597C90.1044 21.8585 89.7281 22.7155 89.3519 23.5725C89.7281 22.6737 90.0626 21.7331 90.4806 20.7716C90.4388 20.8552 90.4388 20.9179 90.4388 20.9597ZM95.3299 10.634L96.4586 8.46023C96.2287 8.50203 95.7897 9.54713 95.3299 10.634ZM92.1946 15.3161C90.0626 19.8101 88.4531 24.6385 86.7391 29.3414C85.9239 31.4735 85.1715 33.71 84.6489 35.9256L84.419 36.8244C84.7534 35.1104 85.1297 33.4592 85.6104 31.8079C86.6555 28.15 87.9724 24.5549 89.54 21.106C92.1946 15.1907 94.5565 8.83645 98.3607 3.48551C95.7897 7.12248 94.0967 11.3029 92.1946 15.3161ZM101.203 12.5779C101.162 11.9091 100.451 12.4316 100.075 12.4316C98.1726 12.5361 96.2914 12.5361 94.4311 12.6197C94.4311 12.5779 94.5356 12.3898 94.661 12.0972C94.4729 12.4316 94.3266 12.6197 94.1803 12.6197C95.6016 9.73525 97.1275 6.82985 98.9251 4.19619C98.8833 4.3007 98.1726 5.47121 98.2144 5.47121C98.3607 5.51302 100.116 3.10928 100.158 2.77484C100.158 2.58672 99.7402 3.06747 99.7402 3.00476C100.033 2.71213 100.493 2.48221 100.639 2.10597C100.973 1.16538 99.9702 0.726436 99.2595 0.580121C97.7964 0.287491 96.1242 0.475602 95.1836 1.70883C94.2848 2.79574 93.6159 4.07077 93.0516 5.3667C92.7589 5.93106 92.3827 6.07738 92.0065 6.59993C91.4421 7.41511 91.0659 8.35571 90.6269 9.25451C90.2507 10.0697 89.8744 10.9058 89.54 11.7628C89.3519 12.1808 89.3519 12.5152 88.9338 12.6615C88.5158 12.8497 87.7006 12.7034 87.2199 12.7661C85.3805 12.996 83.562 12.9124 81.7226 13.1005C80.782 13.1423 79.8205 13.1423 78.9217 13.4767C78.7336 13.5185 77.6885 13.7694 77.6049 13.8948C77.3123 14.4173 78.4619 14.4591 78.6918 14.5009C80.4894 14.7309 82.7677 14.919 84.5653 14.6054C85.7985 14.3755 87.0736 14.4591 88.4113 14.3755C87.7424 15.7969 87.2199 17.3227 86.6973 18.8277L86.133 20.479C85.9448 21.0015 85.3178 22.0048 85.3178 22.5692C85.3178 22.6737 85.4641 22.4228 85.5477 22.1929C85.3178 22.9036 85.0252 23.6143 84.837 24.3249C84.837 24.2831 84.9833 23.7188 84.9415 23.7188C84.7116 23.7188 83.7501 26.6033 83.6665 26.8541C83.1858 28.2754 82.6632 29.6968 82.4333 31.2226C82.1407 32.7485 81.7644 34.2116 81.43 35.6748C81.2419 36.4273 81.0537 37.1379 80.9492 37.9113C80.8447 38.2876 80.7611 38.7265 80.7611 39.1027C80.7611 39.2073 80.7611 39.8134 80.8656 39.6253L80.7611 40.5659L80.7611 39.8552C80.4685 40.1897 80.7611 41.6946 80.8029 41.9872C80.991 42.9278 81.4718 43.7848 82.3288 44.3492C83.0813 44.9135 84.2727 45.4361 85.1715 45.018C86.3629 44.4537 87.3453 43.116 88.1187 42.1754C89.7699 40.2315 91.2958 38.204 92.8007 36.1555C94.1803 34.2535 95.6016 32.4141 96.7721 30.4284C97.441 29.2996 98.716 28.2545 99.1341 26.9795C99.364 26.3733 99.2386 25.6 98.4652 25.7463C97.8591 25.8926 97.0021 27.5439 96.6258 28.0246C94.9119 30.1566 93.3024 32.3305 91.6093 34.4625L88.8711 37.8277C88.4531 38.3085 88.0142 38.831 87.5543 39.2909C87.3662 39.5208 86.1748 40.4823 86.2375 40.754C86.2375 40.8585 86.76 40.4196 86.9481 40.2733C86.7182 40.5659 86.4256 40.7958 86.1957 41.0257C86.2375 40.9839 85.2551 41.5483 85.1088 41.4438C84.21 41.0675 85.0042 38.3085 85.1506 37.6605C86.0076 33.8145 87.2826 29.9476 88.5576 26.2479C89.3101 24.2204 90.0835 22.2765 90.9195 20.2699C91.3376 19.2666 91.7765 18.2424 92.2364 17.2391L92.9052 15.4415L92.3827 16.4866C92.7171 15.6296 93.1979 14.3546 93.4696 14.3128L93.3233 14.6054C93.4278 14.4591 93.5114 14.3755 93.6159 14.3128C94.1385 13.9784 95.4553 14.3128 96.0824 14.3128C96.5004 14.3128 97.023 14.3546 97.4619 14.2083C97.7546 14.1038 97.65 13.9784 97.9845 13.8739C98.5488 13.7694 99.2595 14.1665 99.8866 13.9784C100.451 13.8321 101.266 13.3095 101.203 12.6615L101.203 12.5779Z" fill="#5E17EB"/>
<path d="M132.521 12.0553L132.417 12.2853C132.438 12.2017 132.479 12.1389 132.521 12.0553ZM134.695 38.9982C134.549 39.2908 134.402 39.5207 134.319 39.8134C134.423 39.2908 134.423 38.7683 134.611 38.2457C134.758 37.6814 135.28 37.2006 135.552 36.6781C135.322 37.4932 135.134 38.2457 134.695 38.9982ZM129.072 19.9145C128.362 21.5658 127.693 23.238 127.087 24.8893C127.797 22.7572 128.466 20.7297 129.261 18.5977C130.076 16.4657 131.393 14.5218 132.333 12.4943L129.072 19.9145ZM149.724 5.03223C149.201 3.94532 148.01 2.90021 146.839 2.75389C145.648 2.56577 145.794 3.17194 145.46 3.94532L141.99 11.7209L140.046 16.2776C139.628 17.2809 138.855 20.0609 138.019 20.4371C137.412 20.667 136.305 20.5416 135.657 20.5834L133.483 20.7297C132.208 20.876 131.058 21.2941 129.783 21.2941C130.159 20.5834 130.452 19.8309 130.724 19.0576C131.142 18.0543 131.142 17.1137 131.622 16.1104C132.375 14.4591 133.002 12.7451 133.859 11.1357C134.34 10.1951 134.758 9.19176 135.176 8.25116C135.552 7.49869 135.657 6.6417 135.928 6.01463C136.263 5.45028 136.827 4.92772 137.057 4.36336C137.433 3.27645 136.346 2.46126 135.406 2.12683C134.695 1.8342 133.754 1.7088 133.274 2.35676C133.378 2.31496 133.169 2.96292 133.169 2.87931C133.023 3.21375 132.835 3.54818 132.647 3.81991C130.619 7.70771 129.052 11.7836 127.379 15.8595C126.899 17.0928 126.376 18.326 125.916 19.601C125.686 20.1654 125.435 20.7924 125.164 21.3568C124.787 22.1093 124.495 21.8793 123.638 22.1093C123.262 22.2138 122.509 22.3392 122.321 22.7781C121.903 23.7187 123.324 24.3876 123.972 24.5757C122.885 28.1709 121.548 31.6825 120.565 35.3194C120.335 36.2182 119.855 37.3051 120.043 38.3084C120.189 39.3535 121.757 41.0466 122.927 40.8167C124.056 40.5868 124.119 38.392 124.39 37.4514C124.808 35.842 125.331 34.2325 125.853 32.623C126.272 31.2017 126.899 29.7804 127.17 28.3172L127.505 27.0004C127.735 26.3315 127.986 25.161 128.404 24.6384C128.968 23.9696 130.765 23.8232 131.727 23.7396C132.73 23.5933 133.713 23.447 134.716 23.3634C135.657 23.3216 136.367 22.9454 137.224 22.799C136.033 25.4536 135.239 28.2963 134.089 30.9509C133.274 32.853 132.521 34.7342 131.852 36.7408C131.33 38.3502 130.661 40.0642 130.327 41.7155C130.138 42.7188 130.556 43.6176 131.455 44.1819C133.545 45.4569 134.11 43.5758 134.674 41.9454C135.719 38.9146 136.953 35.9256 138.081 32.9366C138.604 31.4734 138.896 30.1357 139.544 28.7143L141.112 24.9311C141.488 24.0741 142.053 22.4228 142.868 21.9839C143.39 21.7539 143.683 21.6494 144.059 21.5658C144.77 21.3777 145.585 21.4613 146.338 21.2732C146.63 21.2314 147.529 21.0851 147.654 20.6043C147.759 20.1863 147.466 20.1236 147.174 20.04C147.027 19.9982 146.944 20.2699 146.944 20.2699C146.756 20.3117 146.568 20.2281 146.379 20.2699C145.439 20.3744 144.289 20.1654 143.349 20.1654C143.683 18.7858 144.435 17.5526 145.104 16.2358L147.383 11.7418L148.511 9.568C148.804 8.96183 148.846 8.37657 149.034 7.85402C149.536 6.93432 150.33 6.36997 149.724 5.03223Z" fill="#5E17EB"/>
<path d="M151.417 26.018C151.459 25.9135 151.459 25.8717 151.459 25.8717C152.169 24.3459 152.692 22.7364 153.695 21.2732L154.552 20.1445C154.74 19.9146 155.075 19.4757 155.409 19.3921C156.12 19.2457 156.308 20.479 156.266 20.9597L156.078 21.963C156.036 22.2556 156.12 22.4438 156.078 22.6737C155.974 22.9663 155.744 23.0917 155.597 23.3426L154.782 24.3877C153.695 25.6627 152.316 26.7496 150.811 27.5648C151.041 27.0213 151.187 26.4988 151.417 26.018ZM163.185 25.5164C163.185 25.5582 163.185 25.5582 163.143 25.5164L163.143 25.4746C162.39 24.1995 161.387 25.9553 160.969 26.5615C160.154 27.6484 159.401 28.6935 158.544 29.6968C157.834 30.5538 157.081 31.4108 156.517 32.3096C156.517 32.4141 156.412 32.644 156.412 32.644C156.224 32.9366 155.932 33.1666 155.702 33.4592C155.284 33.8772 154.845 34.358 154.385 34.776C153.674 35.4449 149.703 39.1864 149.18 36.7617C148.888 35.5703 149.285 34.1072 149.515 32.9784C149.661 32.3723 149.807 31.787 149.891 31.1808C149.996 30.7001 149.849 30.2403 150.079 29.7595C150.225 29.4669 150.267 29.5296 150.602 29.4251L151.417 29.1324C151.939 28.9443 152.462 28.7562 152.943 28.4636C153.653 28.0455 154.322 27.523 154.928 27.0004C156.392 25.7672 157.959 24.3041 158.586 22.4438C158.921 21.3987 158.963 20.2699 158.294 19.3711C157.688 18.556 156.642 18.1379 155.681 17.9498C153.131 17.4691 151.187 18.9531 149.703 20.897C147.905 23.1335 146.63 25.8717 146.003 28.6726C145.669 30.0521 145.481 31.4108 145.251 32.8321C145.021 34.2535 144.874 35.5703 145.627 36.908C145.585 36.4273 145.481 36.0092 145.481 35.5912C145.481 35.3613 145.585 35.1105 145.585 34.9223C145.585 34.8178 145.481 34.5461 145.481 34.3998C145.481 33.9817 145.585 33.6473 145.669 33.2084C145.711 32.7903 145.669 32.3514 145.711 31.9333C145.752 31.4526 145.941 31.0763 146.129 30.6583C146.275 30.2821 146.317 29.9476 146.463 29.5714C146.609 29.237 146.693 28.8607 146.839 28.4845C146.881 28.2546 147.132 27.9619 147.257 27.6693C147.111 28.0873 146.839 28.4845 146.735 28.8607C146.588 29.4251 146.693 30.0521 146.63 30.6165C146.526 31.2227 146.338 31.8497 146.254 32.5186C146.15 33.1248 145.878 33.71 145.773 34.3162C145.669 34.8805 145.481 35.3195 145.543 35.8838C145.543 36.2183 145.585 36.5527 145.648 36.8244C145.69 37.2007 145.941 37.4306 146.17 37.7232C146.986 38.6638 148.073 39.4372 149.306 39.7507C150.163 39.9806 150.915 39.9388 151.73 39.5208C152.859 38.9146 153.862 37.9531 154.719 37.0544C155.535 36.1556 156.141 35.1523 156.851 34.2117C157.52 33.3547 158.315 32.5604 158.983 31.7034L161.533 28.38L162.997 26.4361C163.227 26.1225 163.373 25.8926 163.185 25.5164Z" fill="#5E17EB"/>
<path d="M164.084 17.699C164.084 17.7408 164.084 17.7408 164.042 17.8035C164.042 17.8035 164.042 17.7617 164 17.7617C164.021 17.7408 164.021 17.7408 164.084 17.699ZM164.543 16.8002C164.543 16.8002 164.648 16.6957 164.732 16.5075L164.543 16.8002ZM162.976 30.8673L162.976 30.9091L162.871 31.2017L162.976 30.8255C163.038 30.7628 163.038 30.7628 162.976 30.8673ZM163.895 19.5801C164 19.7265 163.854 19.9146 164.188 20.1027C164.522 20.249 164.711 20.0609 165.003 19.9564C165.568 19.7265 166.007 19.0994 166.425 18.7232C166.571 18.6186 166.278 18.6814 166.278 18.6814C166.884 18.117 166.383 18.7859 166.947 18.4514C167.512 18.0752 167.616 17.4481 168.076 16.9256C167.512 17.1555 167.073 17.4899 166.696 17.9707C166.216 18.5769 165.881 18.8695 165.379 19.2039C165.944 18.7859 166.236 18.3469 166.696 17.5944C166.843 17.4481 166.989 17.3645 167.177 17.26C167.031 17.1137 167.031 16.9674 167.219 16.842C167.365 16.612 167.637 16.5075 167.783 16.2776C168.013 15.9432 167.971 15.5251 168.264 15.1907C168.494 15.0026 168.828 14.8563 169.016 14.6681C169.435 14.2919 169.915 13.5812 169.727 12.9542C169.539 12.3898 169.058 11.6791 168.536 11.3447C167.93 11.0103 167.073 10.864 166.404 11.1566C166.257 11.1984 165.693 11.3447 165.881 11.5328C165.923 11.6373 165.986 11.6373 166.069 11.6373C165.651 11.9718 164.941 12.5361 165.923 12.9124C165.818 13.0169 165.923 13.4349 165.923 13.4767C165.881 13.8112 165.212 15.5669 164.794 16.4239L165.359 15.5669C165.024 16.2776 164.648 16.9465 164.23 17.5108C164.523 16.9047 163.937 17.6153 163.937 17.7408C163.415 17.5108 163.561 18.974 163.603 19.1203C163.603 19.1621 163.895 19.5801 163.895 19.5801ZM172.173 25.5582C172.068 24.952 171.42 25.1401 171.086 25.37C170.668 25.6627 168.285 28.7771 168.473 29.0279C168.619 29.0279 168.703 29.0279 168.807 28.9234C168.139 29.7386 166.905 30.6374 166.007 31.3481C165.484 31.7661 164.209 32.9575 163.456 32.5813C161.847 31.7661 165.108 26.1016 164.982 26.0389C164.836 25.9971 163.666 28.6517 163.415 29.2578C163.979 27.6066 164.732 25.9344 165.651 24.4712C165.609 24.6176 165.463 24.8475 165.547 24.8475C165.651 24.8893 166.362 23.9069 166.216 23.8024C166.174 23.8024 166.069 23.8024 166.027 23.8442C166.174 23.6979 166.404 23.6561 166.404 23.3634C166.404 22.8827 165.317 22.4228 164.941 22.2765C164.042 21.9003 163.143 21.7958 162.432 22.2765C161.492 22.8409 161.304 23.9905 160.906 24.9729C160.802 25.2655 159.903 28.6308 160.091 28.6726C160.196 28.6308 160.196 28.5681 160.238 28.4845L160.091 29.3414C160.049 29.3414 160.133 29.1115 160.049 29.1115C159.673 29.1115 159.757 30.8255 159.82 31.0554C160.008 31.9124 160.677 32.5186 161.199 33.2292C161.492 33.6473 161.763 34.0862 162.202 34.358C162.767 34.776 162.39 34.358 162.767 34.5461L162.662 34.5461C162.62 34.8387 164.418 35.2985 164.794 35.2567C166.445 34.8805 167.637 32.8321 168.578 31.5571C169.476 30.4284 170.229 29.2787 171.044 28.1082C171.504 27.5021 172.361 26.457 172.173 25.5582Z" fill="#5E17EB"/>
<path d="M178.422 35.2149C178.381 35.1731 178.381 35.0685 178.381 34.9849C178.381 35.0685 178.422 35.1731 178.422 35.2149ZM177.816 30.282C177.774 29.9475 177.67 29.4668 177.524 28.9651C177.628 29.4877 177.712 30.0102 177.816 30.282ZM174.347 43.7429C173.113 44.2655 171.922 44.4954 170.647 44.5581C172.967 44.4118 175.392 43.2831 176.75 41.3392C176.249 42.3634 175.58 43.1786 174.347 43.7429ZM168.389 42.3634C167.156 41.9872 168.389 40.0433 168.807 39.4162C169.518 38.4756 170.563 37.7649 171.504 37.0961L172.925 36.1555C173.071 36.051 173.97 35.3403 173.678 35.4448L174.242 35.1104L173.908 35.403C174.012 35.3612 174.137 35.2985 174.242 35.2149C174.284 36.3436 174.284 37.4932 173.949 38.6219C173.908 38.81 173.009 40.7121 172.633 41.0884L172.862 40.9002C172.444 41.4228 171.964 41.8408 171.399 42.1753C171.399 42.1335 171.817 41.8408 171.776 41.799L170.459 42.3216C169.811 42.4679 169.058 42.6142 168.389 42.3634ZM187.515 26.0806C187.369 25.4118 186.992 25.3282 186.512 25.5163C185.613 25.9343 184.714 26.8958 183.857 27.4602C181.913 28.6934 179.969 29.6967 177.879 30.7209C177.879 30.6791 177.837 30.5746 177.774 30.4283C177.816 30.6582 177.774 30.7627 177.733 30.8045C177.252 28.777 176.792 26.7286 176.416 24.6384C176.604 25.5372 177.022 27.063 177.356 28.3381C176.938 26.3524 176.416 23.8859 176.458 23.8859C176.353 23.9277 176.353 24.0322 176.353 24.1158C176.249 23.5515 176.123 22.8408 176.207 22.2137C176.249 21.5031 176.625 20.8969 176.876 20.228C176.834 20.5625 176.729 20.9805 176.729 20.9805C177.022 21.0223 177.21 19.2665 177.21 19.0784C177.168 18.7858 176.541 17.887 176.541 18.1378C175.266 16.9464 172.758 19.5592 172.382 20.6879C172.089 21.4404 172.089 22.2555 172.152 23.0498C172.194 23.865 172.444 24.5757 172.674 25.3282C172.821 25.8925 172.633 26.2687 172.674 26.8958C172.779 27.8364 173.092 28.7979 173.281 29.6967C173.469 30.4074 174.096 31.8287 173.949 32.4976C173.845 33.1665 172.424 33.7308 171.817 34.107C171.002 34.6296 170.208 35.2358 169.393 35.8628C167.971 36.9497 166.446 38.3293 165.881 40.0851C165.777 40.315 165.463 41.3601 165.777 41.5482C165.818 41.59 165.965 40.7957 166.007 40.6912C165.4 43.8265 168.473 45.3315 171.358 45.3733C174.618 45.4778 176.897 43.5757 178.046 40.6285C178.527 39.3535 178.652 38.0158 178.611 36.6989C178.611 35.8001 178.506 34.9431 178.381 34.0861C178.276 33.3337 178.193 33.3755 178.715 32.9574C179.091 32.6648 179.656 32.4767 180.032 32.2886C181.558 31.4734 182.916 30.5328 184.296 29.5504C185.299 28.8397 187.661 27.6065 187.473 26.1015L187.473 26.0806L187.515 26.0806Z" fill="#5E17EB"/>
<path d="M102.782 35.2149C102.74 35.1731 102.74 35.0685 102.74 34.9849C102.74 35.0685 102.782 35.1731 102.782 35.2149ZM102.175 30.282C102.134 29.9475 102.029 29.4668 101.883 28.9651C101.987 29.4877 102.071 30.0102 102.175 30.282ZM98.7056 43.7429C97.4724 44.2655 96.281 44.4954 95.006 44.5581C97.3261 44.4118 99.7507 43.2831 101.109 41.3392C100.608 42.3634 99.9389 43.1786 98.7056 43.7429ZM92.7485 42.3634C91.5153 41.9872 92.7485 40.0433 93.1666 39.4162C93.8772 38.4756 94.9223 37.7649 95.8629 37.0961L97.2843 36.1555C97.4306 36.051 98.3294 35.3403 98.0368 35.4448L98.6011 35.1104L98.2667 35.403C98.3712 35.3612 98.4966 35.2985 98.6011 35.2149C98.6429 36.3436 98.6429 37.4932 98.3085 38.6219C98.2667 38.81 97.3679 40.7121 96.9917 41.0884L97.2216 40.9002C96.8035 41.4228 96.3228 41.8408 95.7584 42.1753C95.7584 42.1335 96.1765 41.8408 96.1347 41.799L94.8178 42.3216C94.1699 42.4679 93.4174 42.6142 92.7485 42.3634ZM111.874 26.0806C111.728 25.4118 111.351 25.3282 110.871 25.5163C109.972 25.9343 109.073 26.8958 108.216 27.4602C106.272 28.6934 104.328 29.6967 102.238 30.7209C102.238 30.6791 102.196 30.5746 102.134 30.4283C102.175 30.6582 102.134 30.7627 102.092 30.8045C101.611 28.777 101.151 26.7286 100.775 24.6384C100.963 25.5372 101.381 27.063 101.716 28.3381C101.297 26.3524 100.775 23.8859 100.817 23.8859C100.712 23.9277 100.712 24.0322 100.712 24.1158C100.608 23.5515 100.482 22.8408 100.566 22.2137C100.608 21.5031 100.984 20.8969 101.235 20.228C101.193 20.5625 101.088 20.9805 101.088 20.9805C101.381 21.0223 101.569 19.2665 101.569 19.0784C101.527 18.7858 100.9 17.887 100.9 18.1378C99.6253 16.9464 97.1171 19.5592 96.7408 20.6879C96.4482 21.4404 96.4482 22.2555 96.5109 23.0498C96.5527 23.865 96.8035 24.5757 97.0335 25.3282C97.1798 25.8925 96.9917 26.2687 97.0335 26.8958C97.138 27.8364 97.4515 28.7979 97.6396 29.6967C97.8277 30.4074 98.4548 31.8287 98.3085 32.4976C98.204 33.1665 96.7826 33.7308 96.1765 34.107C95.3613 34.6296 94.567 35.2358 93.7518 35.8628C92.3305 36.9497 90.8046 38.3293 90.2403 40.0851C90.1358 40.315 89.8222 41.3601 90.1358 41.5482C90.1776 41.59 90.3239 40.7957 90.3657 40.6912C89.7595 43.8265 92.8321 45.3315 95.7166 45.3733C98.9774 45.4778 101.256 43.5757 102.405 40.6285C102.886 39.3535 103.011 38.0158 102.97 36.6989C102.97 35.8001 102.865 34.9431 102.74 34.0861C102.635 33.3337 102.552 33.3755 103.074 32.9574C103.45 32.6648 104.015 32.4767 104.391 32.2886C105.917 31.4734 107.276 30.5328 108.655 29.5504C109.658 28.8397 112.02 27.6065 111.832 26.1015L111.832 26.0806L111.874 26.0806Z" fill="#5E17EB"/>
<path d="M186.491 41.8409C186.449 41.8409 186.386 41.7991 186.344 41.7364L186.491 41.8409ZM196.816 12.0136L197.297 10.9685C197.151 11.3447 196.942 11.721 196.816 12.0136ZM192.552 20.9597C192.218 21.8585 191.842 22.7155 191.465 23.5725C191.842 22.6737 192.176 21.7331 192.594 20.7716C192.552 20.8552 192.552 20.9179 192.552 20.9597ZM197.422 10.634L198.551 8.46023C198.321 8.50203 197.903 9.54713 197.422 10.634ZM194.308 15.3161C192.176 19.8101 190.567 24.6385 188.853 29.3414C188.037 31.4735 187.285 33.71 186.762 35.9256L186.532 36.8244C186.867 35.1104 187.243 33.4592 187.724 31.8079C188.769 28.15 190.086 24.5549 191.653 21.106C194.308 15.1907 196.67 8.83645 200.474 3.48551C197.903 7.12248 196.189 11.3029 194.308 15.3161ZM203.296 12.5779C203.254 11.9091 202.543 12.4316 202.167 12.4316C200.265 12.5361 198.384 12.5361 196.524 12.6197C196.524 12.5779 196.628 12.3898 196.754 12.0972C196.565 12.4316 196.419 12.6197 196.273 12.6197C197.694 9.73525 199.22 6.82985 201.018 4.19619C200.976 4.3007 200.265 5.47121 200.307 5.47121C200.453 5.51302 202.209 3.10928 202.251 2.77484C202.251 2.58672 201.833 3.06747 201.833 3.00476C202.125 2.71213 202.585 2.48221 202.732 2.10597C203.066 1.16538 202.063 0.726436 201.352 0.580121C199.889 0.287491 198.217 0.475602 197.276 1.70883C196.377 2.79574 195.708 4.07077 195.144 5.3667C194.851 5.93106 194.475 6.07738 194.099 6.59993C193.535 7.41511 193.158 8.35571 192.719 9.25451C192.343 10.0697 191.967 10.9058 191.633 11.7628C191.444 12.1808 191.444 12.5152 191.026 12.6615C190.608 12.8497 189.793 12.7034 189.312 12.7661C187.473 12.996 185.655 12.9124 183.815 13.1005C182.875 13.1423 181.913 13.1423 181.014 13.4767C180.826 13.5185 179.781 13.7694 179.697 13.8948C179.405 14.4173 180.554 14.4591 180.784 14.5009C182.582 14.7309 184.86 14.919 186.658 14.6054C187.891 14.3755 189.166 14.4591 190.504 14.3755C189.835 15.7969 189.312 17.3227 188.79 18.8277L188.225 20.479C188.037 21.0015 187.41 22.0048 187.41 22.5692C187.41 22.6737 187.557 22.4228 187.64 22.1929C187.41 22.9036 187.118 23.6143 186.93 24.3249C186.93 24.2831 187.076 23.7188 187.034 23.7188C186.804 23.7188 185.843 26.6033 185.759 26.8541C185.278 28.2754 184.756 29.6968 184.526 31.2226C184.233 32.7485 183.857 34.2116 183.522 35.6748C183.334 36.4273 183.146 37.1379 183.042 37.9113C182.937 38.2876 182.854 38.7265 182.854 39.1027C182.854 39.2073 182.854 39.8134 182.958 39.6253L182.854 40.5659L182.854 39.8552C182.561 40.1897 182.854 41.6946 182.895 41.9872C183.084 42.9278 183.564 43.7848 184.421 44.3492C185.174 44.9135 186.365 45.4361 187.264 45.018C188.455 44.4537 189.438 43.116 190.211 42.1754C191.862 40.2315 193.388 38.204 194.893 36.1555C196.273 34.2535 197.694 32.4141 198.865 30.4284C199.534 29.2996 200.809 28.2545 201.227 26.9795C201.457 26.3733 201.331 25.6 200.558 25.7463C199.952 25.8926 199.095 27.5439 198.718 28.0246C197.004 30.1566 195.395 32.3305 193.702 34.4625L190.964 37.8277C190.546 38.3085 190.107 38.831 189.647 39.2909C189.459 39.5208 188.267 40.4823 188.33 40.754C188.33 40.8585 188.853 40.4196 189.041 40.2733C188.811 40.5659 188.518 40.7958 188.288 41.0257C188.33 40.9839 187.348 41.5483 187.201 41.4438C186.302 41.0675 187.097 38.3085 187.243 37.6605C188.1 33.8145 189.375 29.9476 190.65 26.2479C191.403 24.2204 192.176 22.2765 193.012 20.2699C193.43 19.2666 193.869 18.2424 194.329 17.2391L194.998 15.4415L194.475 16.4866C194.81 15.6296 195.29 14.3546 195.562 14.3128L195.416 14.6054C195.52 14.4591 195.604 14.3755 195.708 14.3128C196.231 13.9784 197.548 14.3128 198.175 14.3128C198.593 14.3128 199.115 14.3546 199.554 14.2083C199.847 14.1038 199.743 13.9784 200.077 13.8739C200.641 13.7694 201.352 14.1665 201.979 13.9784C202.543 13.8321 203.359 13.3095 203.296 12.6615L203.296 12.5779Z" fill="#5E17EB"/>
</svg>
