<svg
      xmlns="http://www.w3.org/2000/svg"
      width="204"
      height="57"
      fill="none"
      viewBox="0 0 204 57"
    >
      <path
        fill="#5E17EB"
        d="M14.125 13.038c.042.23 0 .48 0 .669v-.67zM1.897 40.628c-2.466-3.072-1.317-7.148.9-10.179-1.945 2.78-2.74 7.838-.9 10.18zM28.38 2.253c-.669-.564-1.463-.94-2.32-1.275-2.132-.899-4.16-1.275-6.438-.71a14.252 14.252 0 00-5.915 3.218c-1.129 1.046-3.135 2.801-3.365 4.453l.334-.481c-.48.899-.815 1.797-1.003 2.654-.042 0 .104-.752.146-.752-.752 0-.522 2.884-.48 3.323.104 1.944.606 3.93 1.379 5.728 1.045 2.466 2.174 4.87 3.135 7.336l.857 2.132c.105.335.23.71.376 1.045.042 0 .23.377.23.335.042.376.147.669.23 1.003-.104-.23-.292-.564-.292-.752-.105.334.188.752.292 1.003.105.48.147.899.147 1.38-.105 1.233-.523 2.424-1.129 3.448-1.233 2.028-3.26 3.7-5.54 4.41-1.65.481-3.699.481-4.451-1.316-.67-1.463-.376-3.26-.042-4.787.188-.857.418-1.714.815-2.508.293-.752 1.798-2.8 1.38-3.553-1.045-1.84-4.557 2.8-5.017 3.553-1.986 3.219-2.947 8.486 1.129 10.556 2.843 1.42 6.584 1.191 9.427.041 1.003-.376 5.309-2.173 5.267-3.595l-.94.67c3.26-2.844 4.598-6.292 3.323-10.556-.606-1.986-1.756-3.596-2.843-5.351-.815-1.422-1.045-2.801-1.714-4.264.9 1.797 1.986 3.553 2.947 5.35-1.943-4.452-5.685-9.76-3.177-14.736 1.13-2.236 3.177-4.075 5.393-5.162 1.275-.607 2.801-1.13 4.264-1.087 1.756.146 1.38 1.275 1.38 2.466.104-.71.522-1.463-.188-2.174-.67-.564-1.756-.376-2.55-.23a12.018 12.018 0 00-5.017 2.174 12.682 12.682 0 013.449-1.902c1.087-.376 2.696-.857 3.783-.376 2.697 1.233-.752 6.396-2.027 8.152.23-.418.606-1.233.71-1.317-.669-.042-1.985 3.26-2.32 3.449-1.129 1.191.23 1.317 1.192.752 1.045-.606 1.902-1.61 2.696-2.424 1.087-1.13 2.09-2.32 2.947-3.596.564-.857 1.61-2.236 1.045-3.26-.46-.962-.69-1.819-1.505-2.467zM28.527 31.139c0 .042-.042.042-.042.042l.042-.042zM20.75 45.791c0-.041 0-.041.042-.104.02.042.02.042-.042.104zm10.054-20.86c0 .105-.042.146-.105.188l.105-.188zm2.466 1.191v-.041c.042-.042.042-.042.042-.105.042-.042 0 .042-.042.146zm-2.466-1.19l.188-.419-.188.418zm.334-.795c-.041.042-.104.188-.146.376l.146-.376zm11.308 5.539c.042-.146.293-.188.418-.293l-.418.293zm-7.713-5.727l-.898 1.316c.271-.418.564-.898.898-1.316zm-6.5 7.754a13.9 13.9 0 01-.48 1.568c.166-.46.292-1.045.48-1.568zm-2.07-1.421v.042c-.041.606-.48 1.317-.71 1.902-.335.899-.606 1.797-.899 2.696a61.317 61.317 0 01-2.09 5.581c-.606 1.526-1.192 3.177-1.61 4.828.523-2.32 1.38-4.598 2.028-6.772.606-1.985 1.568-3.93 2.32-5.873.105-.23 1.003-2.132.899-2.509.063.063.063.105.063.105zm24.247-4.828c-.293.041-2.738.815-2.613 1.191 0 .042.105.105.147.105-.816.334-1.84.376-2.655.898-.899.607-1.756 1.233-2.696 1.756.857-1.463 1.651-3.03 2.173-4.598.189-.565 1.276-4.076.565-4.453-.105-.041-.146.377-.188.607.042-1.902-.565-4.787-3.136-4.975-1.567-.105-3.03 1.84-3.887 2.884-1.944 2.467-3.658 5.122-5.351 7.672-.481.71-5.205 8.381-5.205 8.381s.334-.48.753-1.087c-.419.711-.857 1.463-1.234 2.237.188-.71 1.986-6.354 3.136-9.657.104-.146.146-.334.188-.48l.292-.816v.042c.418-1.275.857-2.55 1.234-3.888 0 .146-.189.857-.147.857.293.042.67-1.944.481-1.944l-.146.23c.146-.71.376-1.045-.042-1.84-.334-.71-.899-1.379-1.714-1.567-1.568-.418-2.32.857-2.237 2.09 0 .189.23.293.23.481 0 .23-.23.669-.292.857-.335 1.003-.565 1.944-.94 2.885-.189.522-1.945 5.455-1.945 5.455.105-.042.146-.146.188-.23-.146.418-.292.857-.48 1.275-.042-.042.146-.376.041-.376-.48-.105-1.65 3.888-1.755 4.264a18.053 18.053 0 01-.753 2.654c-.146.481-.334.941-.48 1.464 0 .041-.23 1.191 0 .752-.042.147-.105.23-.105.335 0-.042-.042-.105-.042-.147-.146.042-.23 1.045-.23 1.087-.188.523-.418.899-.669 1.38-.606 1.526-.94 3.177-1.191 4.786-.376 2.467-1.526 6.166-.293 8.424.418.815 1.756 2.466 2.801 1.463.48-.48.48-1.568.523-2.132.292-1.568.522-3.177.857-4.745l.418-2.174c.041-.104.418-1.839.292-1.797a.875.875 0 00-.23.376c.23-.752.565-1.463.857-2.278.377-1.129.67-2.237 1.234-3.261.669-1.045 1.233-2.174 1.839-3.219.48-.857.899-1.944 1.421-2.654.147-.189.418-.293.67-.481.48-.523.814-1.233 1.19-1.798.711-1.129 1.317-2.278 2.09-3.323.335-.481 4.119-5.79 4.495-6.104a1.151 1.151 0 00-.293.188c.376-.48.815-.898 1.192-1.275.041.042-.293.335-.23.377.104.041 2.278-1.652 2.654-1.714 1.045-.188.67 1.797.523 2.32-.23 1.087-.857 2.132-1.38 3.072-.292.523-.564 1.004-.815 1.526-.042.042-.418.94-.293.857l-.292.418c.104-.146.146-.334.146-.334-.188 0-.418.815-.48.94-.293.481-.67.857-1.046 1.234-1.003 1.128-1.902 2.32-2.884 3.407-.753.815-1.756 2.236-2.885 2.508-.815.188-1.421-.23-1.003 1.045.293.899 1.317 2.99 2.467 2.99 1.045 0 2.32-1.569 2.947-2.238.71-.815 1.526-1.567 2.278-2.424.188-.293 2.362-2.885 2.696-3.03h-.041c.48-.23.94-.043 1.609-.524.376-.292.564-.564 1.003-.857.335-.188.481-.417.606-.564 0 0 0 .042.042.042.481-.48 1.129-.334 1.756-.753.753-.522 1.714-1.19 2.362-1.797.857-.752 2.027-1.191 2.425-2.466-.147.104-.377.104-.523.188z"
      ></path>
      <path
        fill="#5E17EB"
        d="M58.94 18.786l.041-.042c0 .042-.042.042-.042.042zm3.26 3.072c-.335 1.317-.606 3.073-1.317 4.264-.23.481-.104.335-.564.419-.293.104-.899 0-1.192-.042-.522-.042-1.128-.147-1.526-.481-.668-.564-.564-1.463-.48-2.278.104-.816.334-1.568.606-2.32.146-.293 1.045-1.798.899-2.09-.042-.147-.565.71-.606.752.292-.523.564-.815.815-1.129-.042 0 0-.042.041-.146v.042l.042-.105s0-.042.042-.042c.71-.94 2.467-3.072 3.407-1.61.732 1.255.084 3.575-.167 4.766zm-9.322 13.127h-.042c-3.93.564.606-7.776.71-8.235l-.292.418c.71-1.422 1.38-2.55 1.714-2.948.522 2.362 3.072 3.261 5.163 3.554-1.38 2.759-3.93 6.584-7.253 7.211zm16.387-9.573s.042.042 0-.042c-.23-.334-.564-.105-.899 0-1.38.293-2.8.606-4.222.857.522-1.714 1.045-3.512 1.233-5.267.105-.67.146-1.38 0-2.028-.104-.418-.23-.857-.48-1.233 0 0-.565-.71-.419-.335l-.041-.041-.189-.377.188.189c.042-.293-.752-.816-.752-.816-1.191-1.191-2.8-2.09-4.41-1.191-1.004.564-1.798 1.526-2.467 2.466-.23.335-.48.711-.669 1.087-.188.377-.48 1.61-.752 1.798-.23.188-.94.23-1.275.418-.48.188-.899.418-1.275.71-.899.565-1.61 1.38-2.279 2.174-1.128 1.526-1.714 3.22-2.508 4.745-1.526 2.885.147 6.689 2.947 8.048.9.418 1.944.606 2.885.522 1.003-.146 1.944-.669 2.696-1.233.71-.523 2.279-1.463 2.55-2.279 0-.041-.104 0-.23.147l1.38-1.61c.042.042-.334.523-.334.523.334.146 2.027-2.362 2.236-2.55.334-.565.669-1.192 1.045-1.756.335-.418.23-.376.71-.564-.041.041.565-.147.67-.147.501-.083 6.04-.46 4.66-2.215z"
      ></path>
      <path
        fill="#5E17EB"
        d="M71.313 24.367c-.042 0-.042.041-.042.041l.042-.041zM69.83 40.043s.042.042.042.105c.02-.042-.042-.042-.042-.105zm-.188-4.347c0-.042.042-.105.042-.188 0 .083-.042.146-.042.188zm6.835-7.295v.042h-.042l.042-.042zm0 0v.042h-.042l.042-.042zM69.6 36.3c0 .043-.041.105-.041.147v-.042c0-.041.041-.041.041-.104zm6.814-7.754l-1.003 2.09 1.003-2.132v.042zm-4.974-3.7c.23.189.669.23 1.087.293-.377-.042-.711-.146-.941-.334 0 0-.293-.23-.334-.335 0 .084.104.335.188.377zm-1.317 15.635c.293.377.669.753 1.191.94-.418-.145-.815-.375-1.087-.668.042 0 .042.042.042.105-.293-.377-.669-1.192-.71-1.317a5.818 5.818 0 01-.147-1.798c0-.48.042-.857.147-1.275v.042a8.114 8.114 0 00-.105 1.902v.23c-.042-.042-.042-.105-.042-.105s0 .042.042.147v.041l.188 1.004-.146-.606c.104.292.334.815.564 1.316l-.042-.041c0 .041.042.104.105.146v-.063zm1.129-9.092c.334-.857.71-1.651 1.128-2.467.105-.146.753-1.839 1.087-1.943-.23.146-1.233 2.466-1.463 2.884l-.899 2.09c-.48 1.129-1.003 2.32-1.317 3.554.335-1.422.9-2.801 1.463-4.118zm14.171-5.686c-.292-1.233-1.421.418-1.651.711l-2.613 3.49-2.55 3.366-1.38 1.756c-.146.188-1.19 1.526-1.086 1.526.104-.105.23-.105.376-.23-.71.752-3.324 3.135-3.783 2.55-.377-.48.668-2.467.815-2.947.522-1.38 1.003-2.801 1.567-4.118.607-1.38 1.317-2.738 1.902-4.118.565-1.463-.292-1.986-1.65-2.32-.607-.146-1.38-.146-2.09-.23 0 .042.04.042.04.042.607.104 1.527.146 2.28.376-1.13-.334-2.55-.188-3.45-.418-.606-.146-1.003-.146-.898-.857.104-.94 1.087-1.944 1.42-2.843 0 .042-.334.9-.292.9.23.104.606-1.234.606-1.422-.041-.23-.606-.94-.668-.669l.104.146c-2.278-1.567-4.975 1.652-4.494 3.972.105.334.293.522.418.898.105.293 0 .607.293 1.004 1.003 1.233 2.8 1.275 4.222 1.003-.23.335-2.738 5.644-2.613 5.686l-.334 1.19c-.042-.04.146-.417.042-.417-.335-.042-1.004 2.696-1.046 2.947-.188 1.129-.146 2.132.335 3.177.293.67.606 1.233 1.233 1.61.564.376 1.275.564 1.944.418.23-.105 1.129-.711.899-.67l.334-.145c-.041.041-.104.104-.104.146.146.042 2.32-1.714 2.612-1.902 1.526-1.275 2.739-2.843 3.888-4.41 1.13-1.61 2.32-3.22 3.407-4.829.523-.753 1.004-1.526 1.38-2.32.25-.585.731-1.4.585-2.049z"
      ></path>
      <path
        fill="#5E17EB"
        d="M84.377 41.84c-.042 0-.104-.04-.146-.104l.146.105zm10.326-29.826l.48-1.045c-.146.376-.334.752-.48 1.045zm-4.264 8.946c-.335.898-.71 1.755-1.087 2.613.376-.9.71-1.84 1.129-2.801-.042.083-.042.146-.042.188zm4.89-10.326l1.13-2.174c-.23.042-.67 1.087-1.13 2.174zm-3.134 4.682c-2.132 4.494-3.742 9.322-5.456 14.025-.815 2.133-1.568 4.369-2.09 6.585l-.23.898c.334-1.714.71-3.365 1.191-5.016a77.123 77.123 0 013.93-10.702c2.655-5.915 5.016-12.27 8.82-17.62-2.57 3.636-4.263 7.817-6.165 11.83zm9.008-2.738c-.041-.669-.752-.146-1.128-.146-1.902.104-3.784.104-5.644.188 0-.042.105-.23.23-.523-.188.335-.334.523-.48.523 1.42-2.885 2.947-5.79 4.744-8.424-.042.105-.752 1.275-.71 1.275.146.042 1.901-2.362 1.943-2.696 0-.188-.418.292-.418.23.293-.293.753-.523.899-.899.334-.94-.669-1.38-1.38-1.526-1.463-.293-3.135-.104-4.075 1.129-.9 1.087-1.568 2.362-2.132 3.658-.293.564-.67.71-1.046 1.233-.564.815-.94 1.756-1.38 2.655a45.317 45.317 0 00-1.086 2.508c-.188.418-.188.752-.606.899-.418.188-1.233.041-1.714.104-1.84.23-3.658.146-5.497.335-.941.041-1.903.041-2.801.376-.188.041-1.233.292-1.317.418-.293.522.857.564 1.087.606 1.797.23 4.076.418 5.873.104 1.234-.23 2.509-.146 3.846-.23-.669 1.422-1.191 2.948-1.714 4.453l-.564 1.651c-.188.523-.815 1.526-.815 2.09 0 .105.146-.146.23-.376-.23.71-.523 1.421-.711 2.132 0-.042.146-.606.105-.606-.23 0-1.192 2.884-1.275 3.135-.481 1.421-1.004 2.843-1.234 4.369-.292 1.526-.669 2.989-1.003 4.452-.188.752-.376 1.463-.48 2.236-.105.377-.189.816-.189 1.192 0 .104 0 .71.105.522l-.105.94v-.71c-.292.335 0 1.84.042 2.132.188.94.669 1.798 1.526 2.362.752.565 1.944 1.087 2.843.669 1.19-.564 2.173-1.902 2.947-2.843 1.65-1.944 3.177-3.971 4.682-6.02 1.38-1.901 2.8-3.74 3.971-5.727.669-1.128 1.944-2.174 2.362-3.448.23-.607.105-1.38-.669-1.234-.606.147-1.463 1.798-1.84 2.279-1.713 2.132-3.323 4.306-5.016 6.438l-2.738 3.365c-.418.48-.857 1.003-1.317 1.463-.188.23-1.38 1.191-1.317 1.463 0 .105.523-.334.711-.48-.23.292-.522.522-.752.752.041-.042-.94.522-1.087.418-.899-.377-.105-3.136.042-3.784.857-3.845 2.132-7.712 3.407-11.412a161.393 161.393 0 012.361-5.978 94.952 94.952 0 011.317-3.03l.67-1.798-.523 1.045c.334-.857.815-2.132 1.087-2.174l-.147.292a.966.966 0 01.293-.292c.522-.335 1.84 0 2.466 0 .418 0 .941.042 1.38-.105.293-.104.188-.23.522-.334.565-.105 1.276.292 1.903.104.564-.146 1.379-.668 1.316-1.316v-.084zM132.521 12.055l-.104.23c.021-.083.062-.146.104-.23zm2.174 26.943c-.146.293-.293.523-.376.815.104-.522.104-1.045.292-1.567.147-.565.669-1.045.941-1.568-.23.815-.418 1.568-.857 2.32zm-5.623-19.083a99.016 99.016 0 00-1.985 4.974c.71-2.132 1.379-4.16 2.174-6.291.815-2.132 2.132-4.076 3.072-6.104l-3.261 7.42zm20.652-14.883c-.523-1.087-1.714-2.132-2.885-2.278-1.191-.188-1.045.418-1.379 1.191l-3.47 7.776-1.944 4.557c-.418 1.003-1.191 3.783-2.027 4.16-.607.229-1.714.104-2.362.145l-2.174.147c-1.275.146-2.425.564-3.7.564.376-.71.669-1.463.941-2.236.418-1.004.418-1.944.898-2.948.753-1.65 1.38-3.365 2.237-4.974.481-.94.899-1.944 1.317-2.885.376-.752.481-1.61.752-2.236.335-.565.899-1.087 1.129-1.652.376-1.087-.711-1.902-1.651-2.236-.711-.293-1.652-.418-2.132.23.104-.042-.105.606-.105.522a5.753 5.753 0 01-.522.94c-2.028 3.889-3.595 7.965-5.268 12.04-.48 1.234-1.003 2.467-1.463 3.742-.23.564-.481 1.191-.752 1.756-.377.752-.669.522-1.526.752-.376.105-1.129.23-1.317.67-.418.94 1.003 1.609 1.651 1.797-1.087 3.595-2.424 7.107-3.407 10.743-.23.9-.71 1.986-.522 2.99.146 1.044 1.714 2.738 2.884 2.508 1.129-.23 1.192-2.425 1.463-3.366.418-1.609.941-3.218 1.463-4.828.419-1.421 1.046-2.843 1.317-4.306l.335-1.317c.23-.669.481-1.839.899-2.362.564-.668 2.361-.815 3.323-.898 1.003-.147 1.986-.293 2.989-.377.941-.041 1.651-.418 2.508-.564-1.191 2.655-1.985 5.497-3.135 8.152-.815 1.902-1.568 3.783-2.237 5.79-.522 1.61-1.191 3.323-1.525 4.974-.189 1.004.229 1.903 1.128 2.467 2.09 1.275 2.655-.606 3.219-2.237 1.045-3.03 2.279-6.02 3.407-9.008.523-1.464.815-2.801 1.463-4.223l1.568-3.783c.376-.857.941-2.508 1.756-2.947.522-.23.815-.335 1.191-.418.711-.188 1.526-.105 2.279-.293.292-.042 1.191-.188 1.316-.669.105-.418-.188-.48-.48-.564-.147-.042-.23.23-.23.23-.188.042-.376-.042-.565 0-.94.104-2.09-.105-3.03-.105.334-1.38 1.086-2.612 1.755-3.93l2.279-4.493 1.128-2.174c.293-.606.335-1.191.523-1.714.502-.92 1.296-1.484.69-2.822zM151.417 26.018c.042-.105.042-.146.042-.146.71-1.526 1.233-3.136 2.236-4.599l.857-1.128c.188-.23.523-.67.857-.753.711-.146.899 1.087.857 1.568l-.188 1.003c-.042.293.042.48 0 .71-.104.293-.334.419-.481.67l-.815 1.045c-1.087 1.275-2.466 2.362-3.971 3.177.23-.544.376-1.066.606-1.547zm11.768-.502c0 .042 0 .042-.042 0v-.041c-.753-1.276-1.756.48-2.174 1.086-.815 1.087-1.568 2.133-2.425 3.136-.71.857-1.463 1.714-2.027 2.613 0 .104-.105.334-.105.334-.188.293-.48.523-.71.815-.418.418-.857.899-1.317 1.317-.711.669-4.682 4.41-5.205 1.986-.292-1.192.105-2.655.335-3.784.146-.606.292-1.191.376-1.797.105-.48-.042-.94.188-1.422.146-.292.188-.23.523-.334l.815-.293c.522-.188 1.045-.376 1.526-.668.71-.418 1.379-.941 1.985-1.464 1.464-1.233 3.031-2.696 3.658-4.556.335-1.045.377-2.174-.292-3.073-.606-.815-1.652-1.233-2.613-1.421-2.55-.48-4.494 1.003-5.978 2.947-1.798 2.237-3.073 4.975-3.7 7.776-.334 1.38-.522 2.738-.752 4.16-.23 1.42-.377 2.737.376 4.075-.042-.48-.146-.899-.146-1.317 0-.23.104-.48.104-.669 0-.104-.104-.376-.104-.522 0-.418.104-.753.188-1.192.042-.418 0-.857.042-1.275.041-.48.23-.857.418-1.275.146-.376.188-.71.334-1.087.146-.334.23-.71.376-1.087.042-.23.293-.522.418-.815-.146.418-.418.816-.522 1.192-.147.564-.042 1.191-.105 1.755-.104.607-.292 1.234-.376 1.903-.104.606-.376 1.191-.481 1.797-.104.564-.292 1.003-.23 1.568 0 .334.042.669.105.94.042.377.293.607.522.9.816.94 1.903 1.713 3.136 2.027.857.23 1.609.188 2.424-.23 1.129-.606 2.132-1.568 2.989-2.467.816-.898 1.422-1.902 2.132-2.842.669-.857 1.464-1.652 2.132-2.509l2.55-3.323 1.464-1.944c.23-.314.376-.543.188-.92z"
      ></path>
      <path
        fill="#5E17EB"
        d="M164.084 17.699c0 .042 0 .042-.042.104 0 0 0-.041-.042-.041.021-.021.021-.021.084-.063zm.459-.899s.105-.104.189-.293l-.189.293zm-1.567 14.067v.042l-.105.293.105-.377c.062-.062.062-.062 0 .042zm.919-11.287c.105.147-.041.335.293.523.334.146.523-.042.815-.147.565-.23 1.004-.857 1.422-1.233.146-.104-.147-.042-.147-.042.606-.564.105.105.669-.23.565-.376.669-1.003 1.129-1.525a3.25 3.25 0 00-1.38 1.045c-.48.606-.815.898-1.317 1.233.565-.418.857-.857 1.317-1.61.147-.146.293-.23.481-.334-.146-.146-.146-.293.042-.418.146-.23.418-.334.564-.564.23-.335.188-.753.481-1.087.23-.188.564-.335.752-.523.419-.376.899-1.087.711-1.714-.188-.564-.669-1.275-1.191-1.61-.606-.334-1.463-.48-2.132-.187-.147.041-.711.188-.523.376.042.104.105.104.188.104-.418.335-1.128.9-.146 1.275-.105.105 0 .523 0 .565-.042.334-.711 2.09-1.129 2.947l.565-.857c-.335.71-.711 1.38-1.129 1.944.293-.606-.293.104-.293.23-.522-.23-.376 1.233-.334 1.38 0 .041.292.46.292.46zm8.278 5.978c-.105-.606-.753-.418-1.087-.188-.418.293-2.801 3.407-2.613 3.658.146 0 .23 0 .334-.105-.668.816-1.902 1.714-2.8 2.425-.523.418-1.798 1.61-2.551 1.233-1.609-.815 1.652-6.48 1.526-6.542-.146-.042-1.316 2.613-1.567 3.219.564-1.651 1.317-3.324 2.236-4.787-.042.147-.188.377-.104.377.104.041.815-.941.669-1.046-.042 0-.147 0-.189.042.147-.146.377-.188.377-.48 0-.481-1.087-.941-1.463-1.088-.899-.376-1.798-.48-2.509 0-.94.565-1.128 1.715-1.526 2.697-.104.293-1.003 3.658-.815 3.7.105-.042.105-.105.147-.188l-.147.856c-.042 0 .042-.23-.042-.23-.376 0-.292 1.715-.229 1.944.188.857.857 1.464 1.379 2.174.293.418.564.857 1.003 1.129.565.418.188 0 .565.188h-.105c-.042.293 1.756.752 2.132.71 1.651-.376 2.843-2.424 3.784-3.699.898-1.129 1.651-2.278 2.466-3.449.46-.606 1.317-1.651 1.129-2.55z"
      ></path>
      <path
        fill="#5E17EB"
        d="M178.422 35.215c-.041-.042-.041-.147-.041-.23 0 .084.041.188.041.23zm-.606-4.933a9.196 9.196 0 00-.292-1.317c.104.523.188 1.045.292 1.317zm-3.469 13.46c-1.234.524-2.425.753-3.7.816 2.32-.146 4.745-1.275 6.103-3.219-.501 1.024-1.17 1.84-2.403 2.404zm-5.958-1.379c-1.233-.376 0-2.32.418-2.947.711-.94 1.756-1.651 2.697-2.32l1.421-.94c.146-.105 1.045-.816.753-.711l.564-.335-.334.293c.104-.042.229-.105.334-.188.042 1.129.042 2.278-.293 3.407-.041.188-.94 2.09-1.316 2.466l.229-.188a5.31 5.31 0 01-1.463 1.275c0-.041.418-.334.377-.376l-1.317.523c-.648.146-1.401.292-2.07.041zm19.126-16.282c-.146-.67-.523-.753-1.003-.565-.899.418-1.798 1.38-2.655 1.944-1.944 1.233-3.888 2.237-5.978 3.26 0-.04-.042-.145-.105-.292.042.23 0 .335-.041.377-.481-2.028-.941-4.076-1.317-6.167.188.9.606 2.425.94 3.7-.418-1.986-.94-4.452-.898-4.452-.105.042-.105.146-.105.23-.104-.564-.23-1.275-.146-1.902.042-.71.418-1.317.669-1.986-.042.334-.147.752-.147.752.293.042.481-1.713.481-1.902-.042-.292-.669-1.191-.669-.94-1.275-1.192-3.783 1.421-4.159 2.55-.293.752-.293 1.568-.23 2.362.042.815.292 1.526.522 2.278.147.564-.041.94 0 1.568.105.94.418 1.902.607 2.8.188.711.815 2.133.668 2.802-.104.669-1.525 1.233-2.132 1.609-.815.523-1.609 1.129-2.424 1.756-1.422 1.087-2.947 2.466-3.512 4.222-.104.23-.418 1.275-.104 1.463.041.042.188-.752.23-.857-.607 3.136 2.466 4.64 5.351 4.682 3.26.105 5.539-1.797 6.688-4.744.481-1.276.606-2.613.565-3.93 0-.899-.105-1.756-.23-2.613-.105-.752-.188-.71.334-1.129.376-.292.941-.48 1.317-.668 1.526-.816 2.884-1.756 4.264-2.739 1.003-.71 3.365-1.944 3.177-3.448v-.021h.042zM102.782 35.215c-.042-.042-.042-.147-.042-.23 0 .084.042.188.042.23zm-.607-4.933a9.06 9.06 0 00-.292-1.317c.104.523.188 1.045.292 1.317zm-3.47 13.46c-1.233.524-2.424.753-3.699.816 2.32-.146 4.745-1.275 6.103-3.219-.501 1.024-1.17 1.84-2.403 2.404zm-5.956-1.379c-1.234-.376 0-2.32.418-2.947.71-.94 1.755-1.651 2.696-2.32l1.421-.94c.147-.105 1.045-.816.753-.711l.564-.335-.334.293c.104-.042.23-.105.334-.188.042 1.129.042 2.278-.293 3.407-.041.188-.94 2.09-1.316 2.466l.23-.188c-.418.523-.9.94-1.464 1.275 0-.041.419-.334.377-.376l-1.317.523c-.648.146-1.4.292-2.07.041zm19.125-16.282c-.146-.67-.523-.753-1.003-.565-.899.418-1.798 1.38-2.655 1.944-1.944 1.233-3.888 2.237-5.978 3.26 0-.04-.042-.145-.104-.292.041.23 0 .335-.042.377-.481-2.028-.941-4.076-1.317-6.167.188.9.606 2.425.941 3.7-.419-1.986-.941-4.452-.899-4.452-.105.042-.105.146-.105.23-.104-.564-.23-1.275-.146-1.902.042-.71.418-1.317.669-1.986a7.632 7.632 0 01-.147.752c.293.042.481-1.713.481-1.902-.042-.292-.669-1.191-.669-.94-1.275-1.192-3.783 1.421-4.16 2.55-.292.752-.292 1.568-.23 2.362.043.815.293 1.526.523 2.278.147.564-.041.94 0 1.568.105.94.418 1.902.607 2.8.188.711.815 2.133.668 2.802-.104.669-1.525 1.233-2.132 1.609-.815.523-1.609 1.129-2.424 1.756-1.421 1.087-2.947 2.466-3.512 4.222-.104.23-.418 1.275-.104 1.463.042.042.188-.752.23-.857-.606 3.136 2.466 4.64 5.35 4.682 3.261.105 5.54-1.797 6.689-4.744.481-1.276.606-2.613.565-3.93 0-.899-.105-1.756-.23-2.613-.105-.752-.188-.71.334-1.129.376-.292.941-.48 1.317-.668 1.526-.816 2.885-1.756 4.264-2.739 1.003-.71 3.365-1.944 3.177-3.448v-.021h.042z"
      ></path>
      <path
        fill="#5E17EB"
        d="M186.491 41.84c-.042 0-.105-.04-.147-.104l.147.105zm10.325-29.826l.481-1.045c-.146.376-.355.752-.481 1.045zm-4.264 8.946c-.334.898-.71 1.755-1.087 2.613.377-.9.711-1.84 1.129-2.801-.042.083-.042.146-.042.188zm4.87-10.326l1.129-2.174c-.23.042-.648 1.087-1.129 2.174zm-3.114 4.682c-2.132 4.494-3.741 9.322-5.455 14.025-.816 2.133-1.568 4.369-2.091 6.585l-.23.898a56.64 56.64 0 011.192-5.016 77.185 77.185 0 013.929-10.702c2.655-5.915 5.017-12.27 8.821-17.62-2.571 3.636-4.285 7.817-6.166 11.83zm8.988-2.738c-.042-.669-.753-.146-1.129-.146-1.902.104-3.783.104-5.643.188 0-.042.104-.23.23-.523-.189.335-.335.523-.481.523 1.421-2.885 2.947-5.79 4.745-8.424-.042.105-.753 1.275-.711 1.275.146.042 1.902-2.362 1.944-2.696 0-.188-.418.292-.418.23.292-.293.752-.523.899-.899.334-.94-.669-1.38-1.38-1.526-1.463-.293-3.135-.104-4.076 1.129-.899 1.087-1.568 2.362-2.132 3.658-.293.564-.669.71-1.045 1.233-.564.815-.941 1.756-1.38 2.655a45.16 45.16 0 00-1.086 2.508c-.189.418-.189.752-.607.899-.418.188-1.233.041-1.714.104-1.839.23-3.657.146-5.497.335-.94.041-1.902.041-2.801.376-.188.041-1.233.292-1.317.418-.292.522.857.564 1.087.606 1.798.23 4.076.418 5.874.104 1.233-.23 2.508-.146 3.846-.23-.669 1.422-1.192 2.948-1.714 4.453l-.565 1.651c-.188.523-.815 1.526-.815 2.09 0 .105.147-.146.23-.376-.23.71-.522 1.421-.71 2.132 0-.042.146-.606.104-.606-.23 0-1.191 2.884-1.275 3.135-.481 1.421-1.003 2.843-1.233 4.369-.293 1.526-.669 2.989-1.004 4.452-.188.752-.376 1.463-.48 2.236-.105.377-.188.816-.188 1.192 0 .104 0 .71.104.522l-.104.94v-.71c-.293.335 0 1.84.041 2.132.189.94.669 1.798 1.526 2.362.753.565 1.944 1.087 2.843.669 1.191-.564 2.174-1.902 2.947-2.843 1.651-1.944 3.177-3.971 4.682-6.02 1.38-1.901 2.801-3.74 3.972-5.727.669-1.128 1.944-2.174 2.362-3.448.23-.607.104-1.38-.669-1.234-.606.147-1.463 1.798-1.84 2.279-1.714 2.132-3.323 4.306-5.016 6.438l-2.738 3.365c-.418.48-.857 1.003-1.317 1.463-.188.23-1.38 1.191-1.317 1.463 0 .105.523-.334.711-.48-.23.292-.523.522-.753.752.042-.042-.94.522-1.087.418-.899-.377-.104-3.136.042-3.784.857-3.845 2.132-7.712 3.407-11.412a162.28 162.28 0 012.362-5.978 94.503 94.503 0 011.317-3.03l.669-1.798-.523 1.045c.335-.857.815-2.132 1.087-2.174l-.146.292a.965.965 0 01.292-.292c.523-.335 1.84 0 2.467 0 .418 0 .94.042 1.379-.105.293-.104.189-.23.523-.334.564-.105 1.275.292 1.902.104.564-.146 1.38-.668 1.317-1.316v-.084z"
      ></path>
    </svg>